<svg width="650" height="221" viewBox="0 0 650 221" fill="none" xmlns="http://www.w3.org/2000/svg">
<path d="M309.536 95.024C307.147 95.024 305.312 94.3413 304.032 92.976C302.752 91.6107 302.112 89.7333 302.112 87.344V10.416C302.112 7.94133 302.795 6.064 304.16 4.784C305.525 3.41866 307.403 2.73599 309.792 2.73599C311.925 2.73599 313.589 3.16266 314.784 4.016C316.064 4.784 317.216 6.14933 318.24 8.112L349.856 66.608H345.76L377.376 8.112C378.4 6.14933 379.509 4.784 380.704 4.016C381.899 3.16266 383.563 2.73599 385.696 2.73599C388.085 2.73599 389.92 3.41866 391.2 4.784C392.48 6.064 393.12 7.94133 393.12 10.416V87.344C393.12 89.7333 392.48 91.6107 391.2 92.976C390.005 94.3413 388.171 95.024 385.696 95.024C383.307 95.024 381.472 94.3413 380.192 92.976C378.912 91.6107 378.272 89.7333 378.272 87.344V28.08H381.088L354.208 77.104C353.355 78.5547 352.459 79.6213 351.52 80.304C350.581 80.9867 349.301 81.328 347.68 81.328C346.059 81.328 344.736 80.9867 343.712 80.304C342.688 79.536 341.792 78.4693 341.024 77.104L313.888 27.952H316.96V87.344C316.96 89.7333 316.32 91.6107 315.04 92.976C313.845 94.3413 312.011 95.024 309.536 95.024Z" fill="white"/>
<path d="M423.605 94C420.789 94 418.613 93.2747 417.077 91.824C415.626 90.288 414.901 88.112 414.901 85.296V12.464C414.901 9.648 415.626 7.51466 417.077 6.064C418.613 4.52799 420.789 3.75999 423.605 3.75999H469.301C471.434 3.75999 473.056 4.31466 474.165 5.424C475.36 6.53333 475.957 8.112 475.957 10.16C475.957 12.2933 475.36 13.9573 474.165 15.152C473.056 16.2613 471.434 16.816 469.301 16.816H430.645V41.648H466.485C468.704 41.648 470.368 42.2027 471.477 43.312C472.586 44.4213 473.141 46.0427 473.141 48.176C473.141 50.3093 472.586 51.9307 471.477 53.04C470.368 54.1493 468.704 54.704 466.485 54.704H430.645V80.944H469.301C471.434 80.944 473.056 81.4987 474.165 82.608C475.36 83.7173 475.957 85.3387 475.957 87.472C475.957 89.6053 475.36 91.2267 474.165 92.336C473.056 93.4453 471.434 94 469.301 94H423.605Z" fill="white"/>
<path d="M492.467 95.024C490.419 95.024 488.755 94.5547 487.475 93.616C486.28 92.6773 485.555 91.44 485.299 89.904C485.043 88.2827 485.342 86.4907 486.195 84.528L519.987 9.64799C521.096 7.17333 522.419 5.424 523.955 4.39999C525.576 3.29066 527.411 2.73599 529.459 2.73599C531.422 2.73599 533.171 3.29066 534.707 4.39999C536.328 5.424 537.694 7.17333 538.803 9.64799L572.723 84.528C573.662 86.4907 574.003 88.2827 573.747 89.904C573.491 91.5253 572.766 92.8053 571.571 93.744C570.376 94.5973 568.798 95.024 566.835 95.024C564.446 95.024 562.568 94.4693 561.203 93.36C559.923 92.1653 558.771 90.3733 557.747 87.984L549.427 68.656L556.339 73.136H502.323L509.235 68.656L501.043 87.984C499.934 90.4587 498.782 92.2507 497.587 93.36C496.392 94.4693 494.686 95.024 492.467 95.024ZM529.203 21.552L511.283 64.176L507.955 60.08H550.707L547.507 64.176L529.459 21.552H529.203Z" fill="white"/>
<path d="M597.061 94C594.416 94 592.368 93.2747 590.917 91.824C589.466 90.288 588.741 88.1973 588.741 85.552V11.696C588.741 8.96533 589.424 6.91733 590.789 5.55199C592.24 4.10133 594.288 3.376 596.933 3.376C599.578 3.376 601.584 4.10133 602.949 5.55199C604.4 6.91733 605.125 8.96533 605.125 11.696V80.048H642.245C644.549 80.048 646.298 80.6453 647.493 81.84C648.773 83.0347 649.413 84.7413 649.413 86.96C649.413 89.1787 648.773 90.928 647.493 92.208C646.298 93.4027 644.549 94 642.245 94H597.061Z" fill="white"/>
<path d="M310.048 220.024C307.403 220.024 305.355 219.299 303.904 217.848C302.539 216.312 301.856 214.221 301.856 211.576V137.08C301.856 134.349 302.581 132.301 304.032 130.936C305.483 129.485 307.531 128.76 310.176 128.76H341.024C350.923 128.76 358.56 131.235 363.936 136.184C369.312 141.133 372 148.045 372 156.92C372 165.795 369.312 172.749 363.936 177.784C358.56 182.733 350.923 185.208 341.024 185.208H318.24V211.576C318.24 214.221 317.557 216.312 316.192 217.848C314.827 219.299 312.779 220.024 310.048 220.024ZM318.24 172.28H338.464C344.267 172.28 348.661 171 351.648 168.44C354.635 165.795 356.128 161.955 356.128 156.92C356.128 151.885 354.635 148.088 351.648 145.528C348.661 142.968 344.267 141.688 338.464 141.688H318.24V172.28Z" fill="white"/>
<path d="M395.596 219C392.951 219 390.903 218.275 389.452 216.824C388.001 215.288 387.276 213.197 387.276 210.552V136.696C387.276 133.965 387.959 131.917 389.324 130.552C390.775 129.101 392.823 128.376 395.468 128.376C398.113 128.376 400.119 129.101 401.484 130.552C402.935 131.917 403.66 133.965 403.66 136.696V205.048H440.78C443.084 205.048 444.833 205.645 446.028 206.84C447.308 208.035 447.948 209.741 447.948 211.96C447.948 214.179 447.308 215.928 446.028 217.208C444.833 218.403 443.084 219 440.78 219H395.596Z" fill="white"/>
<path d="M459.967 220.024C457.919 220.024 456.255 219.555 454.975 218.616C453.78 217.677 453.055 216.44 452.799 214.904C452.543 213.283 452.842 211.491 453.695 209.528L487.487 134.648C488.596 132.173 489.919 130.424 491.455 129.4C493.076 128.291 494.911 127.736 496.959 127.736C498.922 127.736 500.671 128.291 502.207 129.4C503.828 130.424 505.194 132.173 506.303 134.648L540.223 209.528C541.162 211.491 541.503 213.283 541.247 214.904C540.991 216.525 540.266 217.805 539.071 218.744C537.876 219.597 536.298 220.024 534.335 220.024C531.946 220.024 530.068 219.469 528.703 218.36C527.423 217.165 526.271 215.373 525.247 212.984L516.927 193.656L523.839 198.136H469.823L476.735 193.656L468.543 212.984C467.434 215.459 466.282 217.251 465.087 218.36C463.892 219.469 462.186 220.024 459.967 220.024ZM496.703 146.552L478.783 189.176L475.455 185.08H518.207L515.007 189.176L496.959 146.552H496.703Z" fill="white"/>
<path d="M563.921 220.024C561.446 220.024 559.526 219.341 558.161 217.976C556.881 216.611 556.241 214.648 556.241 212.088V135.928C556.241 133.283 556.881 131.277 558.161 129.912C559.526 128.461 561.276 127.736 563.409 127.736C565.372 127.736 566.822 128.12 567.761 128.888C568.785 129.571 569.98 130.765 571.345 132.472L620.369 196.088H617.041V135.544C617.041 133.069 617.681 131.149 618.961 129.784C620.326 128.419 622.246 127.736 624.721 127.736C627.196 127.736 629.073 128.419 630.353 129.784C631.633 131.149 632.273 133.069 632.273 135.544V212.344C632.273 214.733 631.676 216.611 630.481 217.976C629.286 219.341 627.665 220.024 625.617 220.024C623.654 220.024 622.076 219.64 620.881 218.872C619.772 218.104 618.534 216.867 617.169 215.16L568.273 151.544H571.473V212.088C571.473 214.648 570.833 216.611 569.553 217.976C568.273 219.341 566.396 220.024 563.921 220.024Z" fill="white"/>
<path d="M158.811 41.8703C122.171 41.8703 92.3628 71.7609 92.3628 108.502C92.3628 145.241 122.171 175.13 158.811 175.13C195.448 175.13 225.255 145.241 225.255 108.502C225.255 71.7609 195.448 41.8703 158.811 41.8703Z" fill="white"/>
<path fill-rule="evenodd" clip-rule="evenodd" d="M158.811 7.83809C103.458 7.83809 58.4244 52.9957 58.4244 108.502C58.4244 164.006 103.458 209.162 158.811 209.162C214.162 209.162 259.193 164.006 259.193 108.502C259.193 52.9957 214.162 7.83809 158.811 7.83809ZM84.5463 108.502C84.5463 149.563 117.861 182.968 158.811 182.968C199.758 182.968 233.071 149.563 233.071 108.502C233.071 67.4398 199.758 34.0322 158.811 34.0322C117.861 34.0322 84.5463 67.439 84.5463 108.502Z" fill="white"/>
<path fill-rule="evenodd" clip-rule="evenodd" d="M50.6079 108.502C50.6079 168.328 99.1475 217 158.811 217C218.472 217 267.01 168.329 267.01 108.502C267.01 48.6738 218.472 0 158.811 0C99.1475 0 50.6079 48.6738 50.6079 108.502ZM58.4244 108.502C58.4244 52.9957 103.458 7.83809 158.811 7.83809C214.162 7.83809 259.193 52.9957 259.193 108.502C259.193 164.006 214.162 209.162 158.811 209.162C103.458 209.162 58.4244 164.006 58.4244 108.502ZM16.5178 212.509H27.5742C29.7332 212.509 31.4825 210.754 31.4833 208.59V86.636C38.9316 83.3119 44.0936 76.1816 44.0936 67.9414V12.9195C44.0936 10.7554 42.3443 9.00049 40.1854 9.00049C38.0264 9.00049 36.2771 10.7554 36.2771 12.9195V64.0223H32.0023V12.9195C32.0023 10.7554 30.253 9.00049 28.094 9.00049C25.9351 9.00049 24.1858 10.7554 24.1858 12.9195V64.0223H19.907V12.9195C19.907 10.7554 18.1577 9.00049 15.9988 9.00049C13.8399 9.00049 12.0905 10.7554 12.0905 12.9195V64.0223H7.81649V12.9195C7.81649 10.7554 6.06716 9.00049 3.90825 9.00049C1.74933 9.00049 0 10.7554 0 12.9195V67.9414C0 76.1816 5.16123 83.3119 12.6096 86.6352V208.59C12.6096 210.754 14.3589 212.509 16.5178 212.509ZM23.6668 204.671H20.4261V88.6277H23.6668V204.671ZM22.0464 80.7904C15.7127 80.7904 10.3326 77.0352 8.4934 71.8604H35.5994C33.7602 77.0352 28.3801 80.7904 22.0464 80.7904Z" fill="white"/>
<path d="M8.4934 71.8604C10.3326 77.0352 15.7127 80.7904 22.0464 80.7904C28.3801 80.7904 33.7602 77.0352 35.5994 71.8604H8.4934Z" fill="white"/>
<path d="M20.4261 204.671H23.6668V88.6277H20.4261V204.671Z" fill="white"/>
</svg>
